<svg xmlns="http://www.w3.org/2000/svg" viewBox="0 0 32 32" width="32" height="32">
  <!-- Background circle with Greek blue -->
  <circle cx="16" cy="16" r="15" fill="#1e3a8a" stroke="#daa520" stroke-width="1"/>
  
  <!-- Greek ship (trireme) silhouette -->
  <g transform="translate(16, 16)">
    <!-- Ship hull -->
    <path d="M -10 2 Q -10 6 -8 7 L 8 7 Q 10 6 10 2 L 8 2 Q 6 4 0 4 Q -6 4 -8 2 Z" 
          fill="#8b4513" stroke="#654321" stroke-width="0.5"/>
    
    <!-- Mast -->
    <rect x="-0.5" y="-8" width="1" height="10" fill="#654321"/>
    
    <!-- Sail with wind effect -->
    <path d="M 0.5 -7 Q 6 -4 5 0 L 0.5 1 Z" 
          fill="#f5f5dc" opacity="0.9"/>
    
    <!-- Oar rows (suggesting movement) -->
    <g stroke="#654321" stroke-width="0.3" opacity="0.7">
      <line x1="-6" y1="5" x2="-8" y2="8"/>
      <line x1="-3" y1="5" x2="-5" y2="8"/>
      <line x1="0" y1="5" x2="-2" y2="8"/>
      <line x1="3" y1="5" x2="1" y2="8"/>
      <line x1="6" y1="5" x2="4" y2="8"/>
    </g>
    
    <!-- Wave beneath ship -->
    <path d="M -12 8 Q -9 6 -6 8 T 0 8 T 6 8 T 12 8" 
          stroke="#4682b4" stroke-width="1" fill="none" opacity="0.6"/>
  </g>
  
  <!-- Star (Polaris - guiding star for navigation) -->
  <g transform="translate(24, 8)">
    <path d="M 0 -2 L 0.5 -0.5 L 2 0 L 0.5 0.5 L 0 2 L -0.5 0.5 L -2 0 L -0.5 -0.5 Z" 
          fill="#ffd700" stroke="#daa520" stroke-width="0.2"/>
  </g>
  
  <!-- Greek pattern border (meander/key pattern) at bottom -->
  <g transform="translate(16, 28)" opacity="0.5">
    <path d="M -10 0 L -8 0 L -8 -2 L -6 -2 L -6 0 L -4 0 L -4 -2 L -2 -2 L -2 0 L 0 0 L 0 -2 L 2 -2 L 2 0 L 4 0 L 4 -2 L 6 -2 L 6 0 L 8 0 L 8 -2 L 10 -2" 
          stroke="#daa520" stroke-width="0.5" fill="none"/>
  </g>
</svg>